<svg width="107" height="50" viewBox="0 0 107 50" fill="none" xmlns="http://www.w3.org/2000/svg">
<path d="M0 48.0764L24.6879 1.03949H35.6025L60.2904 48.0764H48.5312L43.4637 38.3312H16.6318L11.6293 48.0764H0ZM30.0803 11.1745L20.5299 30.2102H39.6306L30.0803 11.1745ZM83.8968 49.1159C76.0357 49.1159 70.5783 47.7516 66.6803 46.1924V38.3962C70.8382 39.8255 76.6854 41.2548 83.3121 41.2548C91.3682 41.2548 95.851 38.2662 95.851 34.4981C95.851 30.8599 91.758 27.2866 82.9223 27.2866H77.0102V19.7503H82.9223C90.3287 19.7503 93.642 17.2815 93.642 13.7732C93.642 10.3949 89.1592 8.05605 83.1172 8.05605C78.1147 8.05605 72.0076 9.42038 67.8497 11.3045V3.50828C71.6178 1.55924 77.335 0 83.8318 0C96.5656 0 104.427 5.13248 104.427 12.7987C104.427 17.2166 101.568 21.1147 95.6561 23.2586C103.257 25.4675 106.831 29.6255 106.831 34.758C106.831 42.5541 99.2943 49.1159 83.8968 49.1159Z" fill="black"/>
</svg>
