<svg width="112" height="50" viewBox="0 0 112 50" fill="none" xmlns="http://www.w3.org/2000/svg">
<path d="M0 48.9189L25.6757 0H37.027L62.7027 48.9189H50.473L45.2027 38.7838H17.2973L12.0946 48.9189H0ZM31.2838 10.5405L21.3514 30.3378H41.2162L31.2838 10.5405ZM87.194 50C79.0183 50 73.3426 48.5811 69.2886 46.9595V38.8513C73.6129 40.3378 79.694 41.8243 86.5858 41.8243C96.5183 41.8243 100.234 38.7162 100.234 34.7297C100.234 27.2973 81.0453 26.2162 70.6399 26.2838L71.721 0H108.883V7.97297H81.9237L81.5183 18.1081C94.1534 18.7838 111.518 21.5541 111.518 34.1892C111.518 42.9054 104.289 50 87.194 50Z" fill="black"/>
</svg>
