<svg width="111" height="50" viewBox="0 0 111 50" fill="none" xmlns="http://www.w3.org/2000/svg">
<path d="M0 48.9418L25.1323 1.0582H36.2434L61.3757 48.9418H49.4048L44.246 39.0212H16.9312L11.8386 48.9418H0ZM30.6217 11.3757L20.8995 30.754H40.3439L30.6217 11.3757ZM87.3483 50C72.335 50 64.2001 41.8651 64.2001 27.0503C64.2001 9.92063 73.1287 0 92.4409 0C98.1287 0 103.354 1.19048 106.793 2.51323V10.582C103.221 9.39153 97.8641 8.20106 92.7054 8.20106C82.4541 8.20106 77.0969 12.5 75.6419 20.172C79.0811 18.1878 83.38 16.9312 88.4726 16.9312C102.163 16.9312 110.232 23.082 110.232 33.1349C110.232 42.0635 102.56 50 87.3483 50ZM87.7451 25C82.7186 25 78.6181 25.8598 74.8483 27.7116V28.1746C74.8483 36.8386 79.4118 42.328 87.679 42.328C95.3509 42.328 99.1208 37.963 99.1208 33.1349C99.1208 27.8439 94.7557 25 87.7451 25Z" fill="black"/>
</svg>
