<svg width="113" height="50" viewBox="0 0 113 50" fill="none" xmlns="http://www.w3.org/2000/svg">
<path d="M0 48.9418L25.1323 1.0582H36.2434L61.3757 48.9418H49.4048L44.246 39.0212H16.9312L11.8386 48.9418H0ZM30.6217 11.3757L20.8995 30.754H40.3439L30.6217 11.3757ZM88.706 50C72.2378 50 64.5658 43.4524 64.5658 35.8466C64.5658 30.4233 68.3357 25.8598 76.669 23.6111C70.3198 21.627 67.079 17.9233 67.079 13.2275C67.079 5.22487 74.9494 0 88.706 0C102.595 0 110.399 5.22487 110.399 13.2275C110.399 17.9233 107.291 21.627 101.008 23.6111C109.209 25.8598 112.846 30.4233 112.846 35.8466C112.846 43.4524 105.174 50 88.706 50ZM88.706 42.328C97.7007 42.328 101.867 38.4921 101.867 34.9206C101.867 31.3492 98.0314 27.5794 88.706 27.5794C79.5129 27.5794 75.5447 31.3492 75.5447 34.9206C75.5447 38.4921 79.6452 42.328 88.706 42.328ZM88.706 20.3042C96.2457 20.3042 99.6187 17.6587 99.6187 14.0873C99.6187 10.5159 95.7828 7.47354 88.706 7.47354C81.6293 7.47354 77.7933 10.5159 77.7933 14.0873C77.7933 17.6587 81.1664 20.3042 88.706 20.3042Z" fill="black"/>
</svg>
