<svg width="209" height="84" viewBox="0 0 209 84" fill="none" xmlns="http://www.w3.org/2000/svg">
<path d="M33.2047 33.5299C32.3822 33.9288 31.4236 34.2888 30.3296 34.6068C29.1768 34.9399 28.0072 35.213 26.8257 35.4249C25.5832 35.6511 24.2927 35.8267 22.9548 35.9503C21.6389 36.0736 20.3178 36.1359 18.996 36.1368C16.9623 36.1368 15.1004 35.9684 13.4103 35.6309C11.7202 35.2948 10.2018 34.8178 8.85527 34.2013C7.50871 33.5855 6.3332 32.8382 5.3302 31.9608C4.34961 31.1098 3.50401 30.1166 2.82195 29.015C2.14952 27.9202 1.64469 26.7323 1.324 25.4902C0.988799 24.1842 0.822477 22.8412 0.829044 21.4934C0.829044 20.1817 0.980442 18.8981 1.28324 17.6434C1.58022 16.4041 2.04804 15.2114 2.67347 14.0991C3.30993 12.9738 4.10394 11.9437 5.03177 11.0398C5.98091 10.1089 7.09892 9.30667 8.38725 8.63308C9.67558 7.95877 11.1415 7.43551 12.7865 7.0633C14.4315 6.69109 16.2577 6.50462 18.2637 6.50462C20.2974 6.50462 22.1433 6.67519 23.8028 7.01632C25.4609 7.35818 26.9385 7.8388 28.2356 8.45963C29.5326 9.08046 30.6535 9.82704 31.5983 10.7001C32.5228 11.5489 33.3134 12.531 33.9435 13.6135C34.5675 14.6944 35.0308 15.8592 35.3192 17.0717C35.6176 18.3076 35.7668 19.6006 35.7668 20.9485C35.7668 21.2058 35.7625 21.4515 35.753 21.6864C35.7443 21.9149 35.7332 22.1433 35.7195 22.3716C35.7057 22.5927 35.6875 22.8016 35.6649 22.9967C35.6431 23.1919 35.6176 23.3776 35.5907 23.5554H9.6552C9.76365 24.495 10.041 25.342 10.4886 26.0951C10.9363 26.8489 11.5753 27.49 12.4073 28.0176C13.2385 28.5452 14.2779 28.9499 15.5255 29.2339C16.773 29.518 18.2594 29.6604 19.9859 29.6604C22.4196 29.6579 24.8486 29.4466 27.2456 29.0287C28.3268 28.8408 29.399 28.6054 30.4592 28.3233C31.3913 28.0778 32.3081 27.778 33.2047 27.4257V33.5299ZM27.0324 18.0684C26.8286 17.0732 26.4843 16.2131 26.0003 15.4868C25.5259 14.7702 24.9095 14.1572 24.1886 13.685C23.4651 13.2102 22.6331 12.8582 21.692 12.6298C20.7509 12.4007 19.7297 12.2865 18.6284 12.2865C17.5278 12.2865 16.511 12.4007 15.5786 12.6291C14.6469 12.8582 13.823 13.2102 13.1082 13.6843C12.3944 14.1586 11.785 14.7718 11.3169 15.4868C10.8373 16.2131 10.4952 17.0732 10.2914 18.0684H27.0324ZM41.5898 22.4048V14.4547H61.2423V22.4048H41.5898ZM93.9965 34.6509C93.4462 34.8402 92.7955 35.0245 92.0436 35.2045C91.2917 35.3852 90.4918 35.5442 89.6438 35.6844C88.7793 35.8261 87.9099 35.9365 87.0373 36.0154C86.1868 36.0946 85.3331 36.1351 84.4788 36.1368C82.3061 36.1368 80.4355 35.9113 78.8677 35.461C77.2998 35.0108 76.0093 34.3401 74.9961 33.4482C73.9829 32.5571 73.2354 31.4491 72.7543 30.1251C72.2732 28.801 72.0322 27.2659 72.0322 25.5184V13.2933H65.6095V7.09221H72.3627L73.2704 0H80.6561V7.09221H93.7766V13.2933H80.6561V24.5188C80.6561 25.3926 80.7499 26.1334 80.9377 26.7412C81.1255 27.3491 81.44 27.8441 81.8796 28.2272C82.32 28.6102 82.9001 28.8892 83.6192 29.0648C84.3398 29.2405 85.2263 29.3279 86.281 29.3279C87.0417 29.3279 87.7935 29.299 88.5367 29.2405C89.2468 29.1854 89.9553 29.1112 90.6614 29.0179C91.3354 28.9275 91.957 28.8242 92.5247 28.7071C93.0207 28.6082 93.5119 28.4864 93.9965 28.3421V34.6509ZM102.003 35.4141V7.28157H109.973L110.313 12.4368C110.766 11.5845 111.313 10.7851 111.945 10.0533C112.571 9.33052 113.299 8.70536 114.129 8.17848C114.958 7.65161 115.894 7.24109 116.937 6.94622C117.98 6.65206 119.149 6.50462 120.446 6.50462C121.153 6.50462 121.876 6.54727 122.615 6.63182C123.354 6.71639 124.005 6.83925 124.567 7.00042V14.4591C124.22 14.3898 123.871 14.3315 123.52 14.2842C123.115 14.229 122.709 14.1823 122.303 14.1439C121.875 14.1035 121.446 14.0746 121.017 14.0572C120.605 14.0396 120.192 14.0305 119.78 14.0298C119.045 14.0269 118.311 14.074 117.583 14.1707C116.899 14.2646 116.261 14.394 115.672 14.5588C114.607 14.8512 113.595 15.3075 112.673 15.911C111.922 16.401 111.269 17.0255 110.748 17.7526V35.4141H102.003ZM147.131 36.1368C145.093 36.1368 143.209 35.9886 141.481 35.6923C139.752 35.396 138.187 34.958 136.786 34.3784C135.385 33.7988 134.151 33.0869 133.082 32.242C132.034 31.419 131.126 30.4329 130.395 29.3221C129.672 28.2214 129.127 26.9978 128.759 25.6535C128.391 24.3092 128.206 22.8536 128.206 21.2882C128.206 19.7921 128.391 18.39 128.759 17.0811C129.113 15.8012 129.665 14.5834 130.395 13.4711C131.132 12.3591 132.039 11.3677 133.082 10.5324C134.151 9.66949 135.385 8.93952 136.787 8.34254C138.187 7.74556 139.752 7.28952 141.481 6.97585C143.209 6.66146 145.093 6.50462 147.131 6.50462C149.179 6.50462 151.069 6.65279 152.801 6.94911C154.535 7.24543 156.104 7.68341 157.509 8.26304C158.915 8.84267 160.149 9.55457 161.214 10.3994C162.258 11.2228 163.161 12.2089 163.887 13.3193C164.606 14.42 165.147 15.6415 165.51 16.9814C165.874 18.3214 166.056 19.7748 166.056 21.341C166.056 22.8356 165.871 24.2398 165.503 25.5545C165.15 26.8346 164.598 28.0521 163.867 29.1631C163.128 30.2736 162.221 31.2649 161.18 32.1025C160.111 32.9698 158.877 33.7019 157.476 34.2989C156.075 34.8959 154.51 35.3519 152.781 35.6656C151.053 35.98 149.169 36.1368 147.131 36.1368ZM147.852 29.6322C149.383 29.6322 150.775 29.4327 152.028 29.0338C153.281 28.6348 154.354 28.0631 155.247 27.3194C156.136 26.5799 156.845 25.6488 157.318 24.5969C157.805 23.5251 158.049 22.3217 158.049 20.9861C158.049 19.6505 157.805 18.4471 157.318 17.376C156.843 16.3213 156.135 15.3862 155.247 14.6397C154.354 13.8867 153.282 13.3063 152.028 12.8979C150.775 12.4903 149.383 12.2865 147.852 12.2865C146.33 12.2865 144.943 12.486 143.69 12.8849C142.437 13.2839 141.364 13.8577 140.471 14.6058C139.583 15.3474 138.875 16.2782 138.4 17.329C137.913 18.3958 137.669 19.597 137.669 20.9326C137.669 22.2682 137.913 23.4737 138.4 24.5492C138.874 25.6067 139.582 26.5445 140.471 27.2927C141.364 28.0458 142.436 28.624 143.69 29.0273C144.943 29.4305 146.33 29.6322 147.852 29.6322H147.852ZM200.353 35.4141V20.0053C200.353 18.8316 200.215 17.8111 199.937 16.9438C199.659 16.0765 199.222 15.356 198.626 14.7828C198.029 14.209 197.265 13.7797 196.333 13.4949C195.4 13.2109 194.28 13.0685 192.971 13.0685C191.145 13.0604 189.326 13.2982 187.565 13.7754C186.819 13.9773 186.087 14.2269 185.373 14.5227C184.692 14.8067 184.046 15.1052 183.437 15.416V35.4141H174.79V7.38492H182.348L182.952 10.6004C183.685 9.94862 184.483 9.37208 185.333 8.87953C186.222 8.36334 187.158 7.9321 188.13 7.59162C189.159 7.23163 190.219 6.96175 191.296 6.78505C192.449 6.59514 193.617 6.50134 194.786 6.50462C196.041 6.50462 197.265 6.58051 198.458 6.73156C199.65 6.88262 200.772 7.13846 201.826 7.49839C202.856 7.84662 203.831 8.33607 204.724 8.95253C205.614 9.5735 206.382 10.3513 206.99 11.2472C207.621 12.168 208.115 13.2593 208.469 14.5227C208.823 15.7853 209 17.2481 209 18.9118V35.4141H200.353ZM24.1209 84C25.2462 84 26.3897 83.9639 27.5514 83.8923C28.7154 83.8205 29.8772 83.7176 31.0357 83.5837C32.1852 83.4513 33.3312 83.2903 34.4727 83.1009C35.6031 82.913 36.697 82.7077 37.7546 82.4844C38.8122 82.2604 39.8254 82.0219 40.7935 81.7667C41.7001 81.5305 42.5986 81.2644 43.4874 80.9688V63.8848H34.5738V75.9133C33.8809 76.1099 33.1742 76.287 32.4536 76.4431C31.7071 76.6043 30.9549 76.7386 30.1986 76.8456C29.376 76.9613 28.5493 77.0462 27.7202 77.1C26.7963 77.1598 25.8707 77.1887 24.9448 77.1868C23.1172 77.1868 21.4583 77.0509 19.9677 76.7784C18.4777 76.506 17.1479 76.1034 15.9775 75.5715C14.8063 75.0395 13.7917 74.3782 12.9313 73.5868C12.0734 72.7978 11.3526 71.8735 10.798 70.8513C10.2353 69.8185 9.81606 68.665 9.54165 67.3915C9.26725 66.1173 9.12968 64.7297 9.12968 63.2271C9.12968 60.9924 9.4383 59.0121 10.0548 57.2862C10.672 55.5611 11.6285 54.1084 12.9248 52.9281C14.2211 51.7486 15.8734 50.8539 17.8816 50.2468C19.8891 49.6382 22.2845 49.3347 25.0657 49.3347C26.6422 49.3347 28.17 49.433 29.6513 49.6296C32.3823 49.9884 35.0775 50.5784 37.7073 51.393C38.8959 51.7638 39.9899 52.1194 40.9893 52.4591V45.3784C40.254 45.0779 39.5085 44.8029 38.754 44.5538C37.9588 44.2916 37.1548 44.0568 36.3433 43.8498C35.4745 43.6283 34.5983 43.436 33.7164 43.2731C32.7625 43.0972 31.8032 42.9518 30.8399 42.8373C29.8009 42.7136 28.7584 42.622 27.7137 42.5626C26.6072 42.4993 25.4992 42.468 24.3909 42.4687C21.6905 42.4687 19.2114 42.7007 16.9565 43.1661C14.7008 43.6309 12.6708 44.2943 10.8657 45.1573C9.06053 46.0202 7.47741 47.0653 6.11848 48.2954C4.77986 49.4988 3.63431 50.8983 2.72151 52.4453C1.81676 53.9833 1.13693 55.6594 0.682015 57.4741C0.227824 59.2897 0 61.2071 0 63.2271C0 66.6876 0.562644 69.7158 1.68866 72.3126C2.81395 74.9101 4.42327 77.0733 6.51662 78.8028C8.60998 80.533 11.1444 81.8311 14.12 82.6983C17.0955 83.5656 20.4291 83.9993 24.1209 83.9993V84ZM73.0775 83.1146V49.8305H87.8532V43.3403H49.4573V49.8305H64.1778V83.1146H73.0775Z" fill="black"/>
</svg>
