<svg width="207" height="36" viewBox="0 0 207 36" fill="none" xmlns="http://www.w3.org/2000/svg">
<path d="M32.1937 33.403C31.3759 33.8004 30.4226 34.159 29.3348 34.4758C28.1885 34.8077 27.0255 35.0797 25.8506 35.2908C24.6151 35.5162 23.3318 35.6911 22.0015 35.8142C20.6929 35.9371 19.3793 35.9991 18.0649 36C16.0427 36 14.1913 35.8322 12.5106 35.496C10.83 35.1612 9.32025 34.686 7.98126 34.0718C6.64228 33.4584 5.47338 32.7139 4.47601 31.8398C3.50095 30.992 2.6601 30.0026 1.98188 28.9051C1.31324 27.8145 0.811243 26.6311 0.492354 25.3937C0.159042 24.0926 -0.00634457 22.7547 0.000186089 21.4121C0.000186089 20.1053 0.150732 18.8266 0.451822 17.5766C0.747134 16.342 1.21233 15.1538 1.83423 14.0458C2.46711 12.9246 3.25665 11.8985 4.17927 10.998C5.12307 10.0706 6.23479 9.27144 7.51587 8.6004C8.79696 7.92864 10.2546 7.40736 11.8904 7.03656C13.5261 6.66576 15.3421 6.48 17.3368 6.48C19.359 6.48 21.1945 6.64992 22.8447 6.98976C24.4935 7.33032 25.9627 7.80912 27.2525 8.4276C28.5423 9.04608 29.6569 9.78984 30.5964 10.6596C31.5157 11.5052 32.3018 12.4836 32.9284 13.5619C33.5488 14.6388 34.0095 15.7992 34.2963 17.0071C34.593 18.2383 34.7414 19.5264 34.7414 20.8692C34.7414 21.1255 34.7371 21.3703 34.7277 21.6043C34.7191 21.832 34.7079 22.0595 34.6944 22.2869C34.6806 22.5072 34.6625 22.7153 34.6401 22.9097C34.6184 23.1041 34.593 23.2891 34.5663 23.4662H8.77669C8.88453 24.4022 9.16029 25.2461 9.60541 25.9963C10.0505 26.7473 10.686 27.3859 11.5133 27.9115C12.3398 28.4371 13.3734 28.8403 14.6139 29.1233C15.8545 29.4062 17.3324 29.5481 19.0492 29.5481C21.4693 29.5457 23.8846 29.3351 26.2682 28.9188C27.3432 28.7316 28.4094 28.4971 29.4636 28.2161C30.3905 27.9715 31.3021 27.6729 32.1937 27.3218V33.403ZM26.0561 18C25.8535 17.0086 25.5111 16.1518 25.0298 15.4282C24.5581 14.7143 23.9451 14.1036 23.2283 13.6332C22.5089 13.1602 21.6816 12.8095 20.7458 12.582C19.8099 12.3538 18.7945 12.24 17.6994 12.24C16.605 12.24 15.5939 12.3538 14.6668 12.5813C13.7403 12.8095 12.921 13.1602 12.2103 13.6325C11.5005 14.105 10.8945 14.7159 10.4291 15.4282C9.9521 16.1518 9.61193 17.0086 9.40927 18H26.0561ZM40.5316 22.32V14.4H60.0736V22.32H40.5316ZM92.6435 34.5197C92.0963 34.7083 91.4492 34.8919 90.7016 35.0712C89.9539 35.2512 89.1585 35.4096 88.3153 35.5493C87.4557 35.6904 86.5911 35.8004 85.7234 35.879C84.8777 35.9579 84.0288 35.9983 83.1794 36C81.0189 36 79.1588 35.7754 77.5998 35.3268C76.0408 34.8782 74.7575 34.2101 73.75 33.3216C72.7425 32.4338 71.9992 31.3301 71.5208 30.011C71.0424 28.692 70.8028 27.1627 70.8028 25.4218V13.243H64.4162V7.06536H71.1314L72.034 0H79.3781V7.06536H92.4249V13.243H79.3781V24.426C79.3781 25.2965 79.4715 26.0345 79.6582 26.64C79.8449 27.2455 80.1576 27.7387 80.5948 28.1203C81.0327 28.5019 81.6095 28.7798 82.3246 28.9548C83.0411 29.1298 83.9227 29.2169 84.9714 29.2169C85.7278 29.2169 86.4754 29.1881 87.2144 29.1298C87.9205 29.0749 88.625 29.001 89.3271 28.908C89.9973 28.818 90.6154 28.715 91.18 28.5984C91.6732 28.4999 92.1616 28.3786 92.6435 28.2348V34.5197ZM100.605 35.28V7.254H108.53L108.868 12.3898C109.319 11.5407 109.863 10.7442 110.491 10.0152C111.113 9.2952 111.837 8.6724 112.662 8.14752C113.487 7.62264 114.418 7.21368 115.455 6.91992C116.492 6.62688 117.655 6.48 118.944 6.48C119.648 6.48 120.366 6.52248 121.101 6.60672C121.836 6.69096 122.483 6.81336 123.042 6.97392V14.4043C122.697 14.3353 122.349 14.2772 122.001 14.2301C121.598 14.1751 121.195 14.1286 120.79 14.0904C120.365 14.0501 119.939 14.0213 119.512 14.004C119.102 13.9865 118.692 13.9774 118.282 13.9766C117.551 13.9738 116.821 14.0207 116.097 14.117C115.417 14.2106 114.783 14.3395 114.197 14.5037C113.138 14.795 112.132 15.2495 111.215 15.8508C110.468 16.3389 109.819 16.961 109.301 17.6854V35.28H100.605ZM145.479 36C143.453 36 141.579 35.8524 139.86 35.5572C138.141 35.262 136.585 34.8257 135.192 34.2482C133.8 33.6708 132.572 32.9616 131.51 32.1199C130.467 31.3 129.565 30.3177 128.837 29.2111C128.119 28.1146 127.576 26.8956 127.21 25.5564C126.844 24.2172 126.661 22.7671 126.661 21.2076C126.661 19.7172 126.844 18.3204 127.21 17.0165C127.563 15.7414 128.112 14.5282 128.837 13.4201C129.57 12.3123 130.472 11.3246 131.51 10.4926C132.572 9.63288 133.8 8.90568 135.193 8.31096C136.585 7.71624 138.141 7.26192 139.86 6.94944C141.579 6.63624 143.453 6.48 145.479 6.48C147.515 6.48 149.395 6.6276 151.117 6.9228C152.841 7.218 154.402 7.65432 155.799 8.23176C157.196 8.8092 158.424 9.5184 159.483 10.3601C160.521 11.1803 161.419 12.1627 162.141 13.2689C162.855 14.3654 163.393 15.5822 163.755 16.9171C164.117 18.252 164.297 19.6999 164.297 21.2602C164.297 22.7491 164.114 24.1481 163.748 25.4578C163.397 26.733 162.848 27.9459 162.121 29.0527C161.386 30.159 160.485 31.1465 159.449 31.981C158.386 32.845 157.159 33.5743 155.765 34.169C154.373 34.7638 152.817 35.2181 151.098 35.5306C149.379 35.8438 147.506 36 145.479 36ZM146.196 29.52C147.718 29.52 149.102 29.3213 150.349 28.9238C151.594 28.5264 152.661 27.9569 153.549 27.216C154.434 26.4793 155.138 25.5517 155.608 24.5038C156.093 23.436 156.336 22.2372 156.336 20.9066C156.336 19.5761 156.093 18.3773 155.608 17.3102C155.136 16.2596 154.432 15.3279 153.549 14.5843C152.661 13.8341 151.595 13.2559 150.349 12.8491C149.102 12.443 147.718 12.24 146.196 12.24C144.683 12.24 143.303 12.4387 142.057 12.8362C140.811 13.2336 139.745 13.8053 138.857 14.5505C137.974 15.2893 137.27 16.2166 136.797 17.2634C136.312 18.3262 136.07 19.5228 136.07 20.8534C136.07 22.1839 136.312 23.3849 136.797 24.4562C137.268 25.5098 137.972 26.444 138.857 27.1894C139.745 27.9396 140.811 28.5156 142.057 28.9174C143.303 29.3191 144.682 29.52 146.196 29.52ZM198.402 35.28V19.9296C198.402 18.7603 198.264 17.7437 197.988 16.8797C197.711 16.0157 197.277 15.2978 196.684 14.7269C196.091 14.1552 195.331 13.7275 194.404 13.4438C193.477 13.1609 192.363 13.019 191.061 13.019C189.245 13.011 187.437 13.2478 185.686 13.7232C184.944 13.9244 184.216 14.1731 183.506 14.4677C182.829 14.7506 182.187 15.048 181.581 15.3576V35.28H172.983V7.35696H180.498L181.099 10.5602C181.828 9.91096 182.621 9.3366 183.466 8.84592C184.35 8.33168 185.281 7.90207 186.247 7.56288C187.271 7.20426 188.325 6.93539 189.396 6.75936C190.543 6.57018 191.703 6.47673 192.866 6.48C194.114 6.48 195.331 6.5556 196.517 6.70608C197.702 6.85656 198.818 7.11144 199.866 7.47C200.89 7.81691 201.86 8.30451 202.748 8.91864C203.633 9.53726 204.397 10.3121 205.001 11.2046C205.629 12.1219 206.12 13.2091 206.472 14.4677C206.824 15.7255 207 17.1828 207 18.8402V35.28H198.402Z" fill="black"/>
</svg>
