<svg width="106" height="58" viewBox="0 0 106 58" fill="none" xmlns="http://www.w3.org/2000/svg">
<path d="M27.1237 49.7707C8.22929 49.7707 0 38.5131 0 24.8854C0 11.521 8.75596 0 27.1237 0C46.0182 0 54.2474 11.2577 54.2474 24.8854C54.2474 34.7605 49.4415 43.6481 39.5664 47.5982C40.7514 48.059 41.9364 48.7832 43.4506 50.034L52.9308 58H41.4098C39.0397 58 38.5131 57.4733 37.0647 56.2883L29.0988 49.7049C28.4404 49.7049 27.7821 49.7707 27.1237 49.7707ZM27.1237 41.4098C38.7764 41.4098 43.319 33.8388 43.319 24.8854C43.319 15.9319 38.7764 8.36095 27.1237 8.36095C15.4711 8.36095 10.9285 15.9319 10.9285 24.8854C10.9285 33.8388 15.4711 41.4098 27.1237 41.4098ZM63.6269 48.7174V41.8706L79.098 30.4154C87.1956 24.4245 90.8165 20.8036 90.8165 16.3269C90.8165 10.9943 87.7881 8.16345 80.4805 8.16345C75.9379 8.16345 69.947 9.34847 65.7994 11.126V3.09421C69.6836 1.51419 74.4237 0 81.2047 0C95.6882 0 101.613 5.92509 101.613 15.8661C101.613 25.2804 93.384 30.8104 85.6814 36.2747L79.098 40.9489H105.827V48.7174H63.6269Z" fill="black"/>
</svg>
