<svg width="105" height="58" viewBox="0 0 105 58" fill="none" xmlns="http://www.w3.org/2000/svg">
<path d="M27.1237 49.7707C8.22928 49.7707 0 38.5131 0 24.8854C0 11.521 8.75596 0 27.1237 0C46.0182 0 54.2474 11.2577 54.2474 24.8854C54.2474 34.7605 49.4415 43.6481 39.5664 47.5982C40.7514 48.059 41.9364 48.7832 43.4506 50.034L52.9308 58H41.4098C39.0397 58 38.5131 57.4733 37.0647 56.2883L29.0987 49.7049C28.4404 49.7049 27.7821 49.7707 27.1237 49.7707ZM27.1237 41.4098C38.7764 41.4098 43.319 33.8388 43.319 24.8854C43.319 15.9319 38.7764 8.36095 27.1237 8.36095C15.4711 8.36095 10.9285 15.9319 10.9285 24.8854C10.9285 33.8388 15.4711 41.4098 27.1237 41.4098ZM81.0885 49.7707C73.1225 49.7707 67.5924 48.3882 63.6424 46.8082V38.9081C67.8558 40.3564 73.7809 41.8048 80.496 41.8048C88.6594 41.8048 93.202 38.7764 93.202 34.958C93.202 31.2713 89.0544 27.6504 80.1009 27.6504H74.11V20.0136H80.1009C87.6061 20.0136 90.9636 17.5119 90.9636 13.9569C90.9636 10.5335 86.421 8.16345 80.2985 8.16345C75.2292 8.16345 69.0408 9.54597 64.8274 11.4552V3.55505C68.6458 1.58002 74.4392 0 81.0226 0C93.9261 0 101.892 5.20091 101.892 12.9694C101.892 17.4461 98.9954 21.3961 93.0045 23.5687C100.707 25.807 104.328 30.0204 104.328 35.2213C104.328 43.1215 96.6912 49.7707 81.0885 49.7707Z" fill="black"/>
</svg>
