<svg width="106" height="58" viewBox="0 0 106 58" fill="none" xmlns="http://www.w3.org/2000/svg">
<path d="M27.1237 49.7707C8.22929 49.7707 0 38.5131 0 24.8854C0 11.521 8.75596 0 27.1237 0C46.0182 0 54.2474 11.2577 54.2474 24.8854C54.2474 34.7605 49.4415 43.6481 39.5664 47.5982C40.7514 48.059 41.9364 48.7832 43.4506 50.034L52.9308 58H41.4098C39.0397 58 38.5131 57.4733 37.0647 56.2883L29.0988 49.7049C28.4404 49.7049 27.7821 49.7707 27.1237 49.7707ZM27.1237 41.4098C38.7764 41.4098 43.319 33.8388 43.319 24.8854C43.319 15.9319 38.7764 8.36095 27.1237 8.36095C15.4711 8.36095 10.9285 15.9319 10.9285 24.8854C10.9285 33.8388 15.4711 41.4098 27.1237 41.4098ZM81.4176 49.7707C73.4517 49.7707 67.9216 48.3882 63.9716 46.8082V38.9081C68.185 40.3564 74.11 41.8048 80.8251 41.8048C90.5028 41.8048 94.1237 38.7764 94.1237 34.8922C94.1237 27.6504 75.4267 26.597 65.2882 26.6629L66.3416 1.05335H102.55V8.82179H76.2826L75.8876 18.6969C88.1986 19.3553 105.118 22.0545 105.118 34.3655C105.118 42.8581 98.0737 49.7707 81.4176 49.7707Z" fill="black"/>
</svg>
