<svg width="104" height="58" viewBox="0 0 104 58" fill="none" xmlns="http://www.w3.org/2000/svg">
<path d="M27.0004 49.7707C8.19186 49.7707 0 38.5131 0 24.8854C0 11.521 8.71614 0 27.0004 0C45.8089 0 54.0007 11.2577 54.0007 24.8854C54.0007 34.7605 49.2167 43.6481 39.3865 47.5982C40.5661 48.059 41.7457 48.7832 43.253 50.034L52.69 58H41.2214C38.8622 58 38.3379 57.4733 36.8961 56.2883L28.9664 49.7049C28.3111 49.7049 27.6557 49.7707 27.0004 49.7707ZM27.0004 41.4098C38.6 41.4098 43.122 33.8388 43.122 24.8854C43.122 15.9319 38.6 8.36095 27.0004 8.36095C15.4007 8.36095 10.8788 15.9319 10.8788 24.8854C10.8788 33.8388 15.4007 41.4098 27.0004 41.4098ZM67.7592 48.7174L92.2693 8.82179H62.4509V1.05335H104V7.96595L78.8346 48.7174H67.7592Z" fill="black"/>
</svg>
