<svg width="207" height="96" viewBox="0 0 207 96" fill="none" xmlns="http://www.w3.org/2000/svg">
<path d="M42.4637 56.9947C41.2818 56.9947 40.4376 56.8266 39.9311 56.5744C39.4246 56.2382 38.8336 55.9019 38.1582 55.3135L30.3071 48.8406C29.2941 48.9247 28.7031 48.9247 28.3654 48.9247C22.7936 48.9247 17.9816 47.9159 14.0139 45.9825C10.0461 44.049 6.92251 41.1909 4.81199 37.4921C2.61705 33.7093 1.604 29.4221 1.604 24.4623C1.604 19.6708 2.70147 15.3835 4.89641 11.6007C7.09135 7.81786 10.2149 4.95972 14.1827 2.94221C18.2349 0.924693 22.9625 0 28.3654 0C33.9372 0 38.7492 1.00876 42.717 2.94221C46.6847 4.87566 49.8083 7.7338 51.9188 11.4326C54.0294 15.1313 55.1268 19.5026 55.1268 24.4623C55.1268 29.6743 53.8605 34.2137 51.3279 38.1646C48.7953 42.1156 45.2496 44.9737 40.6064 46.8231C41.7883 47.2434 43.0547 48.0841 44.4054 49.2609L53.7761 57.0788H42.4637V56.9947ZM28.3654 40.6865C31.7423 40.6865 34.6126 40.014 37.0608 38.7531C39.4246 37.4921 41.2818 35.6427 42.5481 33.1208C43.8144 30.683 44.4054 27.7408 44.4054 24.3783C44.4054 21.0158 43.8144 18.1576 42.5481 15.6357C41.2818 13.1979 39.509 11.2644 37.0608 10.0035C34.697 8.74256 31.8267 8.07005 28.3654 8.07005C24.9886 8.07005 22.1183 8.74256 19.7545 10.0035C17.3907 11.2644 15.5334 13.1138 14.2671 15.6357C13.0008 18.0736 12.4099 21.0158 12.4099 24.3783C12.4099 27.7408 13.0008 30.599 14.2671 33.1208C15.5334 35.5587 17.3063 37.4921 19.7545 38.7531C22.1183 40.014 24.9886 40.6865 28.3654 40.6865ZM98.8569 23.0333C101.389 23.7058 103.5 24.6305 105.273 25.8074C107.046 26.9842 108.312 28.3292 109.241 29.8424C110.085 31.4396 110.591 33.1208 110.591 34.9702C110.591 37.7443 109.663 40.1821 107.721 42.2837C105.779 44.3853 103.078 46.0665 99.5322 47.1594C95.9865 48.2522 91.7655 48.8406 86.9535 48.8406C82.1415 48.8406 77.9205 48.2522 74.3748 47.1594C70.8291 46.0665 68.0432 44.3853 66.186 42.2837C64.2443 40.1821 63.3157 37.7443 63.3157 34.9702C63.3157 33.1208 63.7378 31.3555 64.6664 29.8424C65.595 28.2452 66.9458 26.9002 68.7186 25.8074C70.4914 24.6305 72.6864 23.7058 75.219 23.0333C73.1929 22.3608 71.4201 21.6042 70.0693 20.5954C68.6342 19.5867 67.6211 18.4098 66.8614 17.1489C66.186 15.8879 65.7639 14.4588 65.7639 12.8616C65.7639 10.2557 66.6081 7.90193 68.2965 5.96848C69.9849 4.03503 72.4331 2.52189 75.6411 1.51313C78.8491 0.504378 82.648 0 86.9535 0C91.3434 0 95.1423 0.504378 98.3503 1.5972C101.558 2.60595 104.007 4.11909 105.695 6.05254C107.383 7.98599 108.228 10.3398 108.228 12.9457C108.228 14.5429 107.89 15.972 107.215 17.2329C106.539 18.4939 105.442 19.6708 104.091 20.6795C102.571 21.6042 100.883 22.4448 98.8569 23.0333ZM99.7855 34.1296C99.7855 32.7846 99.279 31.5236 98.1815 30.3468C97.084 29.2539 95.5644 28.4133 93.7072 27.8249C91.7655 27.2364 89.4861 26.9002 86.8691 26.9002C84.2521 26.9002 81.9727 27.2364 80.1154 27.8249C78.1737 28.4133 76.6542 29.2539 75.5567 30.4308C74.4592 31.5236 73.9527 32.7846 73.9527 34.1296C73.9527 35.4746 74.4592 36.7355 75.5567 37.8284C76.6542 38.9212 78.1737 39.8459 80.1154 40.4343C82.0571 41.0228 84.3365 41.359 86.8691 41.359C89.4017 41.359 91.6811 41.0228 93.6228 40.4343C95.5644 39.8459 97.084 38.9212 98.1815 37.8284C99.1945 36.7355 99.7855 35.4746 99.7855 34.1296ZM97.5061 13.7863C97.5061 12.5254 97.084 11.4326 96.1554 10.4238C95.2268 9.41506 94.0449 8.65849 92.3565 8.15412C90.7525 7.64974 88.8952 7.31349 86.7003 7.31349C84.5897 7.31349 82.7325 7.56567 81.1285 8.07005C79.5245 8.57443 78.2582 9.331 77.3295 10.3398C76.4009 11.3485 75.9788 12.4413 75.9788 13.7023C75.9788 14.9632 76.4009 16.056 77.2451 16.9807C78.0893 17.9054 79.2712 18.5779 80.8752 19.0823C82.4792 19.5867 84.4209 19.8389 86.7003 19.8389C88.9796 19.8389 90.9213 19.5867 92.5253 19.1664C94.1293 18.662 95.3112 17.9895 96.1554 17.0648C97.084 16.1401 97.5061 15.0473 97.5061 13.7863ZM32.502 93.31C30.898 94.0666 28.7875 94.7391 26.1705 95.2434C23.5534 95.7478 20.9364 96 18.2349 96C14.436 96 11.228 95.4116 8.44209 94.2347C5.74062 93.0578 3.6301 91.2925 2.19494 89.1068C0.759787 86.9212 0 84.2312 0 81.2049C0 78.1786 0.675367 75.5727 2.11052 73.2189C3.54568 70.8652 5.57178 69.0998 8.18883 67.8389C10.8059 66.5779 13.9294 65.9895 17.4751 65.9895C21.1896 65.9895 24.3132 66.5779 26.9303 67.7548C29.5473 68.9317 31.5734 70.613 32.9241 72.7986C34.2749 74.9842 34.9502 77.5902 34.9502 80.6165C34.9502 81.6252 34.8658 82.4659 34.7814 83.2224H8.86419C9.03304 84.5674 9.53956 85.7443 10.3838 86.669C11.228 87.5937 12.3254 88.2662 13.845 88.6865C15.3646 89.1068 17.1374 89.359 19.248 89.359C21.6117 89.359 23.9755 89.1909 26.3393 88.7706C28.7031 88.3503 30.7292 87.8459 32.502 87.0893V93.31ZM26.0861 77.8424C25.8328 76.5814 25.3263 75.4886 24.5665 74.648C23.8067 73.8074 22.8781 73.1348 21.6962 72.7145C20.5143 72.2942 19.0791 72.042 17.5595 72.042C16.04 72.042 14.6048 72.2942 13.4229 72.7145C12.241 73.1348 11.3124 73.8074 10.5526 74.648C9.79282 75.4886 9.2863 76.5814 9.03303 77.8424H26.0861ZM40.522 82.3818V74.9002H60.1921V82.3818H40.522ZM92.7786 94.3187C91.5967 94.7391 90.1615 95.0753 88.3043 95.4116C86.447 95.7478 84.843 95.8319 83.3234 95.8319C80.5375 95.8319 78.2582 95.4116 76.4009 94.655C74.6281 93.8984 73.1929 92.7215 72.3487 91.1243C71.5045 89.5271 70.998 87.5937 70.998 85.1559V72.9667H64.6664V66.7461H71.3357L72.2643 59.6848H79.6089V66.7461H92.6097V72.9667H79.6089V84.1471C79.6089 85.324 79.7777 86.3327 80.1154 87.0053C80.4531 87.6778 81.0441 88.1821 81.8038 88.5184C82.5636 88.8546 83.6611 89.0228 85.0963 89.0228C86.447 89.0228 87.7977 88.9387 89.2329 88.7706C90.668 88.6024 91.8499 88.3503 92.7786 88.0981V94.3187ZM99.7011 95.1594V66.8301H107.637L107.974 72.042C108.987 70.0245 110.423 68.5955 112.111 67.5867C113.799 66.5779 115.825 66.0736 118.105 66.0736C119.709 66.0736 121.06 66.2417 122.241 66.5779V74.0595C120.975 73.8074 119.371 73.6392 117.429 73.6392C115.403 73.6392 113.546 73.9755 112.027 74.648C110.423 75.3205 109.241 76.2452 108.396 77.4221V95.1594H99.7011ZM145.288 96C141.236 96 137.775 95.4116 134.905 94.2347C132.034 93.0578 129.839 91.3765 128.404 89.1068C126.969 86.8371 126.209 84.1471 126.209 80.9527C126.209 77.8424 126.969 75.1524 128.489 72.8827C130.008 70.613 132.203 68.9317 135.073 67.6708C137.944 66.4939 141.321 65.9054 145.288 65.9054C149.341 65.9054 152.802 66.4939 155.672 67.6708C158.542 68.8476 160.737 70.5289 162.173 72.7986C163.692 75.0683 164.367 77.7583 164.367 80.9527C164.367 84.063 163.608 86.7531 162.088 89.0228C160.569 91.2925 158.374 93.0578 155.503 94.2347C152.633 95.4116 149.172 96 145.288 96ZM145.288 89.6112C147.314 89.6112 149.087 89.275 150.607 88.5184C152.126 87.8459 153.308 86.8371 154.153 85.4921C154.997 84.1471 155.419 82.634 155.419 80.8687C155.419 79.1033 154.997 77.5902 154.153 76.2452C153.308 74.9002 152.126 73.8914 150.607 73.2189C149.087 72.5464 147.314 72.1261 145.288 72.1261C143.262 72.1261 141.489 72.4623 139.97 73.2189C138.45 73.8914 137.268 74.9002 136.424 76.2452C135.58 77.5902 135.158 79.1033 135.158 80.8687C135.158 82.634 135.58 84.1471 136.424 85.4921C137.268 86.8371 138.45 87.8459 139.97 88.5184C141.489 89.275 143.262 89.6112 145.288 89.6112ZM198.22 95.1594V79.5236C198.22 77.8424 197.967 76.5814 197.46 75.4886C196.954 74.4799 196.11 73.7233 195.012 73.2189C193.915 72.7145 192.48 72.4623 190.791 72.4623C189.103 72.4623 187.414 72.6305 185.895 73.0508C184.375 73.387 182.771 74.0595 181.167 74.8161V94.9912H172.387V66.8301H180.07L180.661 70.1086C182.18 68.7636 183.953 67.7548 185.979 66.9982C188.005 66.3257 190.285 65.9054 192.648 65.9054C195.941 65.9054 198.558 66.3257 200.668 67.2504C202.779 68.1751 204.383 69.5201 205.396 71.3695C206.409 73.2189 207 75.5727 207 78.3468V94.9912H198.22V95.1594Z" fill="black"/>
</svg>
