<svg width="109" height="58" viewBox="0 0 109 58" fill="none" xmlns="http://www.w3.org/2000/svg">
<path d="M27.1237 49.7707C8.22929 49.7707 0 38.5131 0 24.8854C0 11.521 8.75596 0 27.1237 0C46.0182 0 54.2474 11.2577 54.2474 24.8854C54.2474 34.7605 49.4415 43.6481 39.5664 47.5982C40.7514 48.059 41.9364 48.7832 43.4506 50.034L52.9308 58H41.4098C39.0397 58 38.5131 57.4733 37.0647 56.2883L29.0988 49.7049C28.4404 49.7049 27.7821 49.7707 27.1237 49.7707ZM27.1237 41.4098C38.7764 41.4098 43.319 33.8388 43.319 24.8854C43.319 15.9319 38.7764 8.36095 27.1237 8.36095C15.4711 8.36095 10.9285 15.9319 10.9285 24.8854C10.9285 33.8388 15.4711 41.4098 27.1237 41.4098ZM84.7597 49.7707C68.367 49.7707 60.7302 43.2531 60.7302 35.6822C60.7302 30.2838 64.4827 25.7412 72.7779 23.5028C66.4578 21.5278 63.2319 17.8411 63.2319 13.1669C63.2319 5.20091 71.0662 0 84.7597 0C98.5849 0 106.353 5.20091 106.353 13.1669C106.353 17.8411 103.259 21.5278 97.0049 23.5028C105.168 25.7412 108.789 30.2838 108.789 35.6822C108.789 43.2531 101.152 49.7707 84.7597 49.7707ZM84.7597 42.1339C93.7132 42.1339 97.8607 38.3156 97.8607 34.7605C97.8607 31.2055 94.0423 27.4529 84.7597 27.4529C75.6087 27.4529 71.6587 31.2055 71.6587 34.7605C71.6587 38.3156 75.7404 42.1339 84.7597 42.1339ZM84.7597 20.2111C92.2648 20.2111 95.6224 17.5778 95.6224 14.0227C95.6224 10.4677 91.804 7.43927 84.7597 7.43927C77.7154 7.43927 73.897 10.4677 73.897 14.0227C73.897 17.5778 77.2546 20.2111 84.7597 20.2111Z" fill="black"/>
</svg>
